<?xml version="1.0" encoding="utf-8"?>
<!-- Generator: Adobe Illustrator 22.0.1, SVG Export Plug-In . SVG Version: 6.00 Build 0)  -->
<svg version="1.1" id="Layer_1" xmlns="http://www.w3.org/2000/svg" xmlns:xlink="http://www.w3.org/1999/xlink" x="0px" y="0px"
	 viewBox="0 0 483 215.5" style="enable-background:new 0 0 483 215.5;" xml:space="preserve">
<style type="text/css">
	.st0{fill-rule:evenodd;clip-rule:evenodd;fill:#0095CA;}
	.st1{fill:#7E8081;}
	.st2{fill-rule:evenodd;clip-rule:evenodd;fill:url(#SVGID_1_);}
	.st3{fill:#0095CA;}
	.st4{fill:#005682;}
</style>
<g>
	<path class="st0" d="M423.6,26.5c-18.9-0.3-37.9-0.6-56.8-0.9c0.2-2.4,0.5-4.8,0.7-7.2c-2.5-3.2-5.1-6.4-7.7-9.7V8.3
		c-0.1,0.2-0.2,0.3-0.2,0.5c-0.9-0.4-4.3,2.7-4.9,3.2c-0.7-0.5-0.8-0.3-0.9-0.9c-1.1-0.7,0.5-2.9,1.1-3.2c-0.6-1.2-0.6-0.8-0.7-2.5
		c-17.4-0.7-34.9-1.4-52.3-2c-5.3-2-14.3-0.3-15.1,0.2c-1-1-0.2-0.9-1.8-1.6c0.1,0.5-1,0.7-1.1,2.5c-1-0.3-0.9,0-2.3-0.7v0.5
		c-1.6,0-9.8,3.9-10.4,2.9c-0.8,0.5-0.8,0.5-0.9,1.8c-1.5-0.1-3.3,2.1-3.8,1.4c-0.2,0.2-0.2-0.1-0.2-0.2c-1.7-1-13.7,4-16.4,4.3
		c-1,0.8-1.4,2.6-1.4,4.5c-1.9-0.6-3,1.7-4.1,2.2c-0.2,0.7-0.1,1-1.4,0.7c-0.8,0.7-1.7,1.8-2.5,2.9c0.2,0.2,0.5,0.3,0.7,0.5
		c-1.1,1-1.2-0.3-1.4,0.9c-1.3-0.1-2.6,5.4-3.4,5.8c0,1,6.3,7.7,9.9,6.5c-0.4,1.4,5.5,7.9,7.7,8.5c2.1-0.2,4.2-0.5,6.3-0.7
		c0.2,1,1.3,1.4,1.6,1.6c-0.4,0.1,0.5,2.5,0.5,2.5c0.3,3.1,3.4,6.3,5.2,9c-0.6,0.7,1.4,5.4,1.1,5.6l9,13.9c-0.1,0.2-0.1,0.3-0.2,0.5
		c2.8,0.9,2.1,1.9,4.7,3.8c0.9-0.7,8.9,5.4,10.1,7.2c-0.2,0.2,2.7,7.3,2.7,7.4c0.1,0.2,0.2,0.8,0.5,1.1c1,0.5,2,1,2.9,1.6
		c1.5,0.6,3,1.2,4.5,1.8c1,1.7,2.1,3.4,3.2,5.2c0.4-0.3,2.9,0.9,3.6,1.6c-0.2,0.7-0.5,1.5-0.7,2.3c-0.1,0.4,0.2,0.3-0.5,0.5
		c0.2,0.7,0.2,1.4,0.2,2.1c3.4,2.5,9.6,6.2,17.3,6.2c7.4,0,13.6-4.1,13.6-11.6c0-17.1-38.1-13.4-38.1-37.5c0-12.3,10.6-22,25.4-22
		c14.6,0,22.3,7.9,22.3,7.9l-5,9.1c0,0-7.2-6.8-17.3-6.8c-8.4,0-14.3,5.2-14.3,11.5c0,16.3,38.1,11.9,38.1,37.4
		c0,12.1-9.4,22.2-25,22.2c-1.1,0-2.3-0.1-3.3-0.1c0.8,0.2,1.6,0.5,2.3,0.9c1.6,0.9,4.1,4.2,6.1,5.2c0.4,0.7,0.3,1.6,0.5,2.5
		c-0.5,0.1-0.9,0.2-1.4,0.2c0.3,1.9,2.7,2.6,2,5.4c0.2-0.1,0.5-0.2,0.7-0.2c0.3,0.7,0.3,1.3,0.7,1.8c-0.2,0.7,0.6,0.5,0.7,0.9
		c0.6,0.2,1,6.6,0.9,6.8v0.5c-0.1,0.1-0.1,0.1-0.2,0.2l-0.2,0.2c0.1,0,3.2,3.8,0.7,4.3c0.1,2,3.3,5.2,6.8,4.7
		c-0.2,0.8,3.8,4.2,4.7,6.1c-1.7,1.2,0.5,5.6,1.4,6c-0.5,0.8,0.9,0.6,1.4,0.5c-0.1,0.6-0.1,2.2,0.7,2.9c-0.5,1.2-1.7,2.3-1.6,3.6
		c-0.2,0.8-0.1,0.2,0.5,0.7c2.7,2.5,0.3,5.3,1.8,6.7c-0.5,2.1,4.2,1.3,5.6,1.1c0.7,2.1,2.7,2.2,4.3,2.9c0.2-0.2,0.3-0.3,0.5-0.5h0.5
		c-0.4-0.2-0.7-0.3-1.1-0.5c0-5.5,2.8-7.1,2-9.7c0.3-0.1,0.6-0.1,0.9-0.2v1.1c1.4-0.1,2.1-0.2,2.7-0.9c1.5-1.3-0.1-3,1.8-4
		c-0.2-0.3-0.3-0.6-0.5-0.9c-1.5,0.8-0.9,0.7-3.2,1.4c-1-0.7-2-1.4-2.9-2c-0.1-0.4-0.1-0.7-0.2-1.1c1.1-0.2,1.1,0.1,1.4-0.5
		c2.4,0.9,1.9-3.7,1.4-5.2c0.9,0,0.3,0,1.1,0.2c-0.7-1.6-0.4-6.2-2.9-6.5c-0.2-0.5-0.3-0.9-0.5-1.4h1.6c0.6,0.7,0.3,0.4,0.5,1.4
		c1.2-0.3,1,0.3,2.7,0.7c0.5-1,0.9-0.7,2-0.9c-0.3,1.2-1.1,1.3-2.7,1.1c0.1,0.2,0.2,0.3,0.2,0.5c-0.1,0.1,0.1,1.9,0.7,0.9
		c0.7,0.6,0.4,0.4,0.7,1.1c-0.8,0.5-0.8,0.5-0.9,1.1c-0.7,1.5,2.8,4.2,2.9,5.4h1.4c-0.1-0.1-0.1-0.2-0.2-0.3c0.1,0-0.2-1-0.3-1.3
		h0.7c0.5,0.7,1.1,1.5,1.6,2.3c-0.2,0.4-0.6,1.1-1.6,1.1c-0.1,0.3-0.1,0.6-0.2,0.9c0.6,0.5,1.8,1.6,1.8,2c0.4-0.2,0.7-0.3,1.1-0.5
		V176c0.8,0.2,1,3.3,0.9,4.1c0.2-0.1,0.3-0.2,0.5-0.2c0.3,0,8.4-8,8.4-8.1c0.1-0.8-0.2-0.6-0.5-1.6c-1.9,0.3-1.9,0-3.4-0.5
		c-0.1,0.3-0.3,0.6-0.5,0.9c-0.9-0.8-0.8-0.9,0-1.6c-0.1-0.4-0.3-0.8-0.5-1.1c-2.2,0.4-7.9-1.9-8.1-3.1c-0.2-0.1-0.5-0.2-0.7-0.2
		c1.6,0.1,7.1,0.9,8.1,1.4h0.2c-0.6-2.1-1.8-2.7-2.3-3.8h1.6c0.2,0.5,0.5,0.9,0.7,1.4c1.3-0.2,1.3-0.5,2.3-0.9
		c1,0.9,0.6,3.2,2.3,3.6c0.1,0.2,0.2,0.3,0.2,0.5c1.3-1.2,0.9-1,3.4-1.6v1.1h1.1v-0.7c-0.4-0.5-1.4-1.3-1.6-1.4v-0.7
		c0.5-0.1,0.9-0.2,1.4-0.2c-0.1,0.9,0.2,0.9,1.4,0.7c-0.1,0.8-0.3,0.3,0.2,0.9c0.3,0.7,0.5-0.1,1.6-0.2c0,0.7-0.2,0.1,0.2,0.7
		c-0.2,0.5-0.4,0.9-0.7,1.4c0.6-0.3,0.5,0.2,0.7,0.9h-1.1c0.4,0.3,0.7,0.6,1.1,0.9c0.5-1.7,4.7-2.4,5.4-5.2c-0.3-0.2-0.5-1-0.2-1.4
		c-0.7-0.6-3.6-0.7-4.3-2.2c-0.6-0.1-0.3,0.1-0.9-0.5c0.6-0.5,1-0.3,1.8-0.5c0.5,0.6,0.3,0.2,0.9,0.5c0.2-0.8,0.3-1-0.2-1.6v-0.9
		c0.3,0.2,0.6,0.3,0.9,0.5c0.5-0.5,0.4-0.7,0.5-1.4c0.5-0.1,1.1-0.1,1.6-0.2c-0.3-0.7,0-0.3-0.5-0.7c0.2-0.2,2.9-1,2.9-1.4h0.9
		c-0.1,0.1-0.2,0.3-0.2,0.5c0.1,0.2,0.2,0.5,0.2,0.7c-2.7-0.2-4.1,1.8-5,4.1c1.7,0.8,2.3,1.8,3.8,2.5c-0.3,0.9-0.1,0.7-0.9,1.1
		c0.5,0.8,0.3,0.9,1.6,1.1c0.4-0.8,6.9-4.3,8.1-2.7c1.1-0.4,0.5-0.2,0.9-0.9h-0.5c-0.1-0.7-1.1-1.5-2.5-1.1c0.5-1.3,2.8-2.5,4.3-2.3
		c0.9-1.7,1.6-3.5,2.9-4.3c0.8-0.5,1,0.2,1.6-0.5c-1.4-0.2-2.7-0.3-4.1-0.5c0.7-0.7-0.1-0.5,1.1-0.5c0-0.8,0.5-2.6,1.1-3.2v2
		c0.7,0.2,1.5,0.5,2.3,0.7c3.8-3.2,8.1-6.4,12.1-11.2c-0.2-0.3,1.3-2.7,2.5-3.6h0.7c2.4-2.6,6.3-3.3,8.8-5.6
		c1.4,0.9,0.8,1.2,1.8,2.2c0.9-0.7,2.7-2.6,5.6-2.5c-0.2-0.6,2.6-4.1,3.6-5.2c0.1-2.5,0.1-9.6,0.9-10.6c1-2,2-4.1,2.9-6.1
		c5.1-6.2,10.6-13.6,16.4-18.2c3.3-1.5,6.6-3,9.9-4.5c0.6,0.2,0.4,0.1,0.9-0.2C461.5,65.5,442.5,46,423.6,26.5z M394.9,130.3
		c-23.6,0-40.2-18.1-40.2-41.1c0-22.8,17.2-40.2,40-40.2c18.9,0,28.6,10.4,28.6,10.4l-5.5,8.2c0,0-9.1-8.6-22.7-8.6
		c-17.6,0-29.1,13.4-29.1,30.1c0,16.8,11.7,31.1,29.2,31.1c14.8,0,24.3-10.3,24.3-10.3l5.9,7.9C425.5,117.8,414.6,130.3,394.9,130.3
		z"/>
	<path class="st0" d="M440.5,132.8c0.6-0.6,0.4-0.2,0.5-0.9C440.8,132.2,440.7,132.5,440.5,132.8z"/>
	<path class="st0" d="M440.3,133.1c0.3,0.7,0,0.3,0.5,0.7v-0.9C440.6,132.9,440.4,133,440.3,133.1z"/>
	<path class="st0" d="M439.6,133.5c0.1,0.9,0,1.5,0.5,2c0-0.6,0.1-0.7,0.5-1.3C440.2,134,439.9,133.7,439.6,133.5z"/>
	<path class="st0" d="M439.4,135.5v0.7c0.2-0.1,0.3-0.2,0.5-0.2L439.4,135.5z"/>
	<path class="st0" d="M437.6,135.8c0.5,0.5,0.6,0.4,1.6,0.5V136C438.6,135.9,438.1,135.8,437.6,135.8z"/>
	<path class="st0" d="M428.3,140.5c-0.7,1-1.5,1.9-2.3,2.9c0.2,0.1,0.3,0.2,0.5,0.2c0.8-0.8,1.6-1.5,2.5-2.3
		C428.8,141.1,428.6,140.8,428.3,140.5z"/>
	<path class="st0" d="M425,143.6c-0.1,0.3-0.1,0.6-0.2,0.9c0.2-0.1,0.5-0.2,0.7-0.2C425.3,144.1,425.1,143.8,425,143.6z"/>
	<path class="st0" d="M424.1,144.1c0.1,0.2,0.2,0.5,0.2,0.7c0.1-0.2,0.2-0.5,0.2-0.7H424.1z"/>
	<path class="st0" d="M423.8,144.3c-0.1,0.2-0.2,0.3-0.2,0.5c0.1,0.1,0.3,0.2,0.4,0.2C424,144.7,423.9,144.5,423.8,144.3z"/>
	<path class="st0" d="M422.9,144.5c-0.1,0.5-0.8,1.9-1.8,2c0.3,0.9-0.1,0.6,0.9,0.9c0.5-0.8,1.1-1.6,1.6-2.5
		C423.4,144.8,423.2,144.7,422.9,144.5z"/>
	<path class="st0" d="M420.9,147.5c-0.1,0.2-0.2,0.5-0.2,0.7c0.2,0.1,0.3,0.2,0.5,0.2C421.2,147.8,421.2,148,420.9,147.5z"/>
	<path class="st0" d="M419.8,148.4c-0.6,0.5-0.1,0.1-0.9,0.2c0.8,0.8,0.6,0.3,1.6,0.5v-0.2C420.2,148.6,420,148.5,419.8,148.4z"/>
	<path class="st0" d="M418.2,149c-0.2,0.5-0.8,0.8-1.4,0.9c0.2,0.5-0.2,0.2,0.5,0.7c0.6-0.5,0.5-0.5,1.1-0.7
		c0.1-0.2,0.2-0.3,0.2-0.5C418.5,149.3,418.3,149.2,418.2,149z"/>
	<path class="st0" d="M416,150.4c0.2,0.6-0.5,0.6-1.1,0.7c-0.2,0.2-0.3,0.5-0.5,0.7c0.7-0.2,1.5-0.3,2.3-0.5v-0.9H416z"/>
	<path class="st0" d="M413.7,150.8c0.2,0.2,0.5,0.3,0.7,0.5C414,150.8,414.4,151.1,413.7,150.8z"/>
	<path class="st0" d="M413.7,152.4c-0.3,0.5-0.6,0.9-0.9,1.4c0.1,0.2,0.3,0.3,0.5,0.5C413.6,153.6,414.3,153.3,413.7,152.4z"/>
	<path class="st0" d="M412.6,155.8c-0.1,0.2-0.2,0.3-0.2,0.5h0.7C412.9,156.1,412.7,155.9,412.6,155.8z"/>
	<path class="st0" d="M412.1,156.2c-0.1,0.3-0.2,0.6-0.2,0.9C412.2,156.7,412.4,156.8,412.1,156.2z"/>
	<path class="st0" d="M411.5,156.7c-0.1,0.2-0.2,0.5-0.2,0.7C411.6,156.9,411.7,157.3,411.5,156.7z"/>
	<path class="st0" d="M410.8,156.9c-0.1,0.2-0.1,0.5-0.2,0.7C411.1,157.1,410.8,157.3,410.8,156.9z"/>
	<path class="st0" d="M409.4,157.6c-0.1,0.1-0.1,0.2-0.2,0.2v0.2c0.1,0.1,0.3,0.2,0.5,0.2c0.1-0.1,0.1-0.2,0.2-0.2L409.4,157.6z"/>
	<path class="st0" d="M409,158c-0.1,0.2-0.1,0.3-0.2,0.5h0.7C409.3,158.3,409.1,158.2,409,158z"/>
	<path class="st0" d="M396.3,163.4c-0.1,0.1-0.1,0.3-0.2,0.5h0.7C396.7,163.7,396.5,163.5,396.3,163.4z"/>
	<path class="st0" d="M397.9,164.1c0.6,0.3,0.3,0.6,0.9,0H397.9z"/>
	<path class="st0" d="M388.3,166.5c0.1,0.2,0.3,0.5,0.5,0.7h0.2v-0.7H388.3z"/>
	<path class="st0" d="M385.8,167.7v0.7C385.9,167.8,386.4,168,385.8,167.7z"/>
	<path class="st0" d="M386.2,167.9c-0.1,0.2-0.2,0.5-0.2,0.7h1.4C387,168.3,386.6,168.1,386.2,167.9z"/>
	<path class="st0" d="M381,168.3c-0.3,0.2-0.6,0.5-0.9,0.7v0.2c1,0,0.6-0.1,1.4,0.2c0.1-0.2,0.1-0.3,0.2-0.5
		C381.5,168.8,381.3,168.6,381,168.3z"/>
	<path class="st0" d="M384.6,172.4v1.8c0.2,0.1,0.5,0.1,0.7,0.2v-2.3C385.1,172.2,384.9,172.3,384.6,172.4z"/>
	<path class="st0" d="M365.3,174.2c0.2,0.3,0.5,0.6,0.7,0.9c0.1-0.2,0.2-0.3,0.2-0.5C365.9,174.5,365.6,174.3,365.3,174.2z"/>
	<path class="st0" d="M384.2,174.9c0.5,0.4,0.1,0.3,0.7,0H384.2z"/>
	<path class="st0" d="M365,175.3c-0.6,1.1-0.5,1.8-2,1.6c-0.1,0.2-0.2,0.3-0.2,0.5h0.5c0.9,0.5,0.5,0.3,1.4-0.2
		c0.2,0.2,0.3,0.5,0.5,0.7c-0.2,0.3-0.5,0.6-0.7,0.9h0.7c0.6,0.2,0.6-0.2,1.1-0.7C366,176.8,365.9,175.8,365,175.3z"/>
	<path class="st0" d="M384,175.5c0.2,0.2-0.1,0.2-0.2,0.2v0.9c0.2,0.1,0.5,0.3,0.7,0.5c0.1-0.5,0.2-1.1,0.2-1.6H384z"/>
	<path class="st0" d="M383.3,176.7c-0.5,0.7-0.9,1.4-1.4,2c0.2-0.2,0.5-0.5,0.7-0.7c0.7-0.1,0.9-0.2,1.4-1.1
		C383.7,176.8,383.5,176.8,383.3,176.7z"/>
	<path class="st0" d="M381.5,178.2v0.7h0.2C381.6,178.7,381.5,178.5,381.5,178.2z"/>
	<path class="st0" d="M381,178.5c-0.1,0.2-0.2,0.5-0.2,0.7C381.2,178.7,381.3,179.1,381,178.5z"/>
	<path class="st0" d="M377.2,178.7c-0.6,1-0.9,0.7-1.4,2.3c0.6-0.5,1.2-1.1,1.8-1.6C377.5,179.1,377.4,178.9,377.2,178.7z"/>
	<path class="st0" d="M379.9,178.9c0.1,0.2,0.2,0.5,0.2,0.7c0.1-0.2,0.1-0.5,0.2-0.7H379.9z"/>
	<path class="st0" d="M379.7,179.1c-0.1,0.2-0.2,0.5-0.2,0.7C379.8,179.4,380,179.8,379.7,179.1z"/>
	<path class="st0" d="M377.9,180c-0.4,0.7-0.1,0.3,0.7,0.5V180H377.9z"/>
	<path class="st0" d="M372.9,183c0.1-0.5-1.8-2-2.7-2.5v0.9c-0.3,0.1-0.6,0.2-0.9,0.2c0.1-0.3,0.1-0.6,0.2-0.9h-1.1
		c-0.1,0.8,0,1.3-0.7,1.6c0.6,0.5,0.1,0.1,0.7,0.2c0.4-0.1,0.7-0.3,1.1-0.5v1.1c-0.5,0.1-1,0.3-1.6,0.5c0.2,0.3-0.1,0.3,0.7,0.5
		c-0.3,0.9,0,0.5-0.7,0.7c-0.3,0.5-0.6,1.1-0.9,1.6c0.3-0.1,0.6-0.1,0.9-0.2c-0.2,1.2-2.5,3.5-2.9,3.6c0.2,0.3,0.3,0.6,0.5,0.9
		c3.2-1.8,6.3-3.7,7.9-7.6H372.9z"/>
	<path class="st0" d="M365.5,185c-0.3,0.8-1.5,1.4-2,0.4c-0.2,0.2-0.3,0.3-0.5,0.5c0.6,1.2,1,0.3,1.6,1.6h0.2
		c0.4-0.8,0.7-1.6,1.1-2.5H365.5z"/>
	<path class="st0" d="M363.9,188.1c0,0.2-1.2,1.6-2.3,2c0.3,0.6,0.6,1.2,0.9,1.8h0.5c0.7-1.1,1.4-2.2,2-3.4
		C364.7,188.4,364.3,188.3,363.9,188.1z"/>
	<path class="st0" d="M361.4,192.6c-0.1,0.1-0.1,0.3-0.2,0.5h0.7C361.7,192.9,361.6,192.8,361.4,192.6z"/>
</g>
<g>
	<path class="st1" d="M44.1,48.9c22.7,0,40.3,17.5,40.3,40.1c0,23.2-17.6,41.2-40.3,41.2c-22.7,0-40.4-18-40.4-41.2
		C3.7,66.4,21.4,48.9,44.1,48.9z M44.1,120.1c16,0,29-13.4,29-31.1c0-17.2-12.9-30.1-29-30.1c-16,0-29.1,12.9-29.1,30.1
		C15.1,106.8,28.1,120.1,44.1,120.1z"/>
	<path class="st1" d="M91.6,72.6h10.5v9.8c0,2.3-0.2,4.2-0.2,4.2h0.2c2.6-8.2,9.1-14.7,17.8-14.7c1.4,0,2.8,0.2,2.8,0.2v10.7
		c0,0-1.4-0.3-3.1-0.3c-6.9,0-13.3,4.9-15.8,13.3c-1,3.2-1.3,6.7-1.3,10.1v23.1H91.6V72.6z"/>
	<path class="st1" d="M135.7,82h-7.4v-8.7h7.7V57.1h10.5v16.3h13.6V82h-13.6v25.1c0,11.3,7.9,12.7,12,12.7c1.6,0,2.6-0.2,2.6-0.2
		v9.6c0,0-1.6,0.2-3.8,0.2c-7.2,0-21.6-2.2-21.6-21.1V82z"/>
	<path class="st1" d="M166.5,50.3h10.8v28.9c0,2.7-0.2,4.7-0.2,4.7h0.2c2.5-5.5,9.6-12.6,20.8-12.6c13.3,0,19.4,7.2,19.4,21.6v36.1
		h-10.8V95.3c0-7.9-1.7-14.1-10.7-14.1c-8.5,0-15.5,5.8-17.8,13.9c-0.7,2.2-0.9,4.8-0.9,7.5v26.4h-10.8V50.3z"/>
	<path class="st1" d="M253.3,71.2c16.8,0,30.4,12.4,30.4,29.4c0,17.2-13.6,29.6-30.4,29.6c-16.8,0-30.4-12.5-30.4-29.6
		C222.9,83.6,236.5,71.2,253.3,71.2z M253.3,120.9c10.7,0,19.4-8.5,19.4-20.3c0-11.7-8.7-20.1-19.4-20.1c-10.6,0-19.4,8.4-19.4,20.1
		C233.9,112.4,242.7,120.9,253.3,120.9z"/>
</g>
<radialGradient id="SVGID_1_" cx="361.2028" cy="206.8074" r="62.47" gradientTransform="matrix(1 0 0 7.074690e-02 0 192.1765)" gradientUnits="userSpaceOnUse">
	<stop  offset="0" style="stop-color:#939598"/>
	<stop  offset="1" style="stop-color:#939598;stop-opacity:0"/>
</radialGradient>
<ellipse class="st2" cx="361.2" cy="206.8" rx="62" ry="4.4"/>
<path class="st3" d="M385.6,187.1h1.1H385.6z"/>
<g>
	<path class="st4" d="M311.4,164.9v-1.6h-5.8v-5.1h5.3v-1.6h-5.3v-4.7h5.7v-1.6h-7.5v14.6H311.4z M300.4,154.3
		c0.2-2.8-0.9-4.3-3.8-4.3c-2.9,0-4.7,1.2-4.7,5.3v4.1c0,5.7,2.8,5.8,4.6,5.8c1,0,4.2,0,4.1-4.6h-1.9c0,2.9-1.7,3.1-2.3,3.1
		c-1.4,0-2.6-0.4-2.6-4v-3.9c0-2.5,0.4-2.9,0.4-3c0.1-0.2,0.7-1.1,2.2-1.1c0.4,0,1.3,0.2,1.6,0.6c0.4,0.5,0.4,1.3,0.4,2.1H300.4z
		 M286.5,150.3v12.5h0l-5.7-12.5h-2.6v14.6h1.7v-12.7h0l5.8,12.7h2.5v-14.6H286.5z M275.1,164.9v-1.6h-5.8v-5.1h5.3v-1.6h-5.3v-4.7
		h5.7v-1.6h-7.5v14.6H275.1z M263.4,150.3h-1.9v14.6h1.9V150.3z M253.5,158.1c0.6,0,2.1,0.1,2.2,1.9c0.2,1.9,0,3.8,0.6,4.9h1.9
		c-0.3-0.9-0.5-3.2-0.5-3.8c-0.1-2.9-0.7-3.5-2.4-3.8v0c1.7-0.3,2.7-1.6,2.7-3.3c0-1.8-0.9-3.6-3.5-3.6h-5v14.6h1.9v-6.7H253.5z
		 M251.4,151.9h2.8c1.4,0,2,1.2,2,2.2c0,1.3-0.6,2.4-2,2.4h-2.8V151.9z M246.6,164.9v-1.6h-5.8v-5.1h5.3v-1.6h-5.3v-4.7h5.7v-1.6
		h-7.5v14.6H246.6z M229.3,164.9v-6.4h2.4c1.5,0,4.1-0.7,4.1-4c0-3.4-2.1-4.2-4.1-4.2h-4.3v14.6H229.3z M229.3,151.9h2.6
		c0.4,0,2.1,0.2,2.1,2.4c0,2.3-1.8,2.5-2.6,2.5h-2V151.9z M220.4,157.3l3.9-7h-2l-3,5.7l-3-5.7h-2.1l4,7l-4.2,7.6h2l3.2-6.3l3.4,6.3
		h2.2L220.4,157.3z M212.4,164.9v-1.6h-5.8v-5.1h5.3v-1.6h-5.3v-4.7h5.7v-1.6h-7.5v14.6H212.4z M192,164.9v-6.7h5.1v-1.6H192v-4.7
		h5.4v-1.6h-7.2v14.6H192z M182,163.6c-1.8,0-2.7-0.8-2.7-4v-4.9c0-3.1,2.1-3.2,2.7-3.2c0.6,0,2.7,0.1,2.7,3.2v4.9
		C184.6,162.8,183.7,163.6,182,163.6 M182,165.2c3.1,0,4.6-1.6,4.6-5.6v-4.8c0-2.9-1.5-4.8-4.6-4.8c-3.1,0-4.6,1.9-4.6,4.8v4.8
		C177.4,163.6,178.9,165.2,182,165.2 M161.5,164.9v-6.7h5.1v6.7h1.9v-14.6h-1.9v6.3h-5.1v-6.3h-1.9v14.6H161.5z M147.6,150.3v1.6
		h3.8v13h1.9v-13h3.8v-1.6H147.6z M145,154.2c0.1-3.1-1.4-4.2-4.5-4.2c-3.1,0-4.6,1.9-4.6,4.8v4.8c0,4,1.5,5.6,4.6,5.6
		c1.9,0,3.3-0.4,4.5-1.1V157h-4.6v1.6h2.7v4.4c-0.4,0.3-1.3,0.6-2.6,0.6c-1.8,0-2.7-0.8-2.7-4v-4.9c0-3.1,2.1-3.2,2.7-3.2
		c1.9,0,2.6,0.9,2.6,2.7H145z M130.5,150.3v12.5h0l-5.7-12.5h-2.6v14.6h1.7v-12.7h0l5.8,12.7h2.5v-14.6H130.5z M119.1,164.9v-1.6
		h-5.8v-5.1h5.3v-1.6h-5.3v-4.7h5.7v-1.6h-7.5v14.6H119.1z M103.7,158.1c0.6,0,2.1,0.1,2.2,1.9c0.2,1.9,0,3.8,0.6,4.9h1.9
		c-0.3-0.9-0.5-3.2-0.5-3.8c-0.1-2.9-0.7-3.5-2.4-3.8v0c1.7-0.3,2.7-1.6,2.7-3.3c0-1.8-0.9-3.6-3.5-3.6h-5v14.6h1.9v-6.7H103.7z
		 M101.5,151.9h2.8c1.4,0,2,1.2,2,2.2c0,1.3-0.6,2.4-2,2.4h-2.8V151.9z M87.7,150.3v1.6h3.8v13h1.9v-13h3.8v-1.6H87.7z M76.9,160.5
		c0,1.4,0,4.7,4.3,4.7c2.4,0,4.5-1,4.5-4.1c0-4.6-6.6-4.2-6.6-7.4c0-1.6,1.1-2.1,2.2-2.1c1.8,0,2.3,1.1,2.2,2.6h1.9
		c0.1-3-1.4-4.3-4-4.3c-2.4,0-4.3,1.4-4.3,4c0,4.4,6.6,4,6.6,7.3c0,1.7-1.1,2.4-2.6,2.4c-1.2,0-2.4-0.6-2.4-2.6v-0.4H76.9z
		 M69.3,164.9v-1.6h-5.8v-5.1h5.3v-1.6h-5.3v-4.7h5.7v-1.6h-7.5v14.6H69.3z M50.8,164.9v-6.7h5.1v6.7h1.9v-14.6h-1.9v6.3h-5.1v-6.3
		h-1.9v14.6H50.8z M36.8,150.3v1.6h3.8v13h1.9v-13h3.8v-1.6H36.8z"/>
</g>
</svg>
